{
    "asset" : {
        "generator" : "Khronos glTF Blender I/O v1.1.46",
        "version" : "2.0"
    },
    "scene" : 0,
    "scenes" : [
        {
            "name" : "Scene",
            "nodes" : [
                0,
                1
            ]
        }
    ],
    "nodes" : [
        {
            "mesh" : 0,
            "name" : "Cube"
        },
        {
            "mesh" : 1,
            "name" : "Cube.001",
            "translation" : [
                0.5,
                1,
                0.3999999761581421
            ]
        }
    ],
    "materials" : [
        {
            "doubleSided" : true,
            "emissiveFactor" : [
                0,
                0,
                0
            ],
            "name" : "Material",
            "pbrMetallicRoughness" : {
                "baseColorFactor" : [
                    0.6981925964355469,
                    0.4051364064216614,
                    0.23554903268814087,
                    1
                ],
                "metallicFactor" : 0.6590908765792847,
                "roughnessFactor" : 0.3295454680919647
            }
        },
        {
            "doubleSided" : true,
            "emissiveFactor" : [
                0,
                0,
                0
            ],
            "name" : "Material.002",
            "pbrMetallicRoughness" : {
                "baseColorFactor" : [
                    0.10653512924909592,
                    0.10653512924909592,
                    0.10653512924909592,
                    1
                ],
                "metallicFactor" : 0.7840909361839294,
                "roughnessFactor" : 0.5
            }
        },
        {
            "doubleSided" : true,
            "emissiveFactor" : [
                0,
                0,
                0
            ],
            "name" : "Material.001",
            "pbrMetallicRoughness" : {
                "baseColorFactor" : [
                    0.0020634797401726246,
                    0.0020634797401726246,
                    0.0020634797401726246,
                    1
                ],
                "metallicFactor" : 0,
                "roughnessFactor" : 0.40909090638160706
            }
        }
    ],
    "meshes" : [
        {
            "name" : "Cube",
            "primitives" : [
                {
                    "attributes" : {
                        "POSITION" : 0,
                        "NORMAL" : 1,
                        "TEXCOORD_0" : 2
                    },
                    "indices" : 3,
                    "material" : 0
                },
                {
                    "attributes" : {
                        "POSITION" : 4,
                        "NORMAL" : 5,
                        "TEXCOORD_0" : 6
                    },
                    "indices" : 7,
                    "material" : 1
                }
            ]
        },
        {
            "name" : "Cube.001",
            "primitives" : [
                {
                    "attributes" : {
                        "POSITION" : 8,
                        "NORMAL" : 9,
                        "TEXCOORD_0" : 10
                    },
                    "indices" : 11,
                    "material" : 0
                },
                {
                    "attributes" : {
                        "POSITION" : 12,
                        "NORMAL" : 13,
                        "TEXCOORD_0" : 14
                    },
                    "indices" : 15,
                    "material" : 2
                }
            ]
        }
    ],
    "accessors" : [
        {
            "bufferView" : 0,
            "componentType" : 5126,
            "count" : 548,
            "max" : [
                0.5,
                2,
                0.3999999761581421
            ],
            "min" : [
                -0.5,
                0,
                -0.3999999761581421
            ],
            "type" : "VEC3"
        },
        {
            "bufferView" : 1,
            "componentType" : 5126,
            "count" : 548,
            "type" : "VEC3"
        },
        {
            "bufferView" : 2,
            "componentType" : 5126,
            "count" : 548,
            "type" : "VEC2"
        },
        {
            "bufferView" : 3,
            "componentType" : 5123,
            "count" : 822,
            "type" : "SCALAR"
        },
        {
            "bufferView" : 4,
            "componentType" : 5126,
            "count" : 180,
            "max" : [
                0.4304644465446472,
                1.9304646253585815,
                -0.28981754183769226
            ],
            "min" : [
                -0.4304644465446472,
                0.0695355236530304,
                -0.3985792100429535
            ],
            "type" : "VEC3"
        },
        {
            "bufferView" : 5,
            "componentType" : 5126,
            "count" : 180,
            "type" : "VEC3"
        },
        {
            "bufferView" : 6,
            "componentType" : 5126,
            "count" : 180,
            "type" : "VEC2"
        },
        {
            "bufferView" : 7,
            "componentType" : 5123,
            "count" : 270,
            "type" : "SCALAR"
        },
        {
            "bufferView" : 8,
            "componentType" : 5126,
            "count" : 583,
            "max" : [
                0,
                1,
                0.2289591133594513
            ],
            "min" : [
                -1,
                -1,
                0
            ],
            "type" : "VEC3"
        },
        {
            "bufferView" : 9,
            "componentType" : 5126,
            "count" : 583,
            "type" : "VEC3"
        },
        {
            "bufferView" : 10,
            "componentType" : 5126,
            "count" : 583,
            "type" : "VEC2"
        },
        {
            "bufferView" : 11,
            "componentType" : 5123,
            "count" : 2226,
            "type" : "SCALAR"
        },
        {
            "bufferView" : 12,
            "componentType" : 5126,
            "count" : 4,
            "max" : [
                -0.2655027210712433,
                0.7016170620918274,
                0.15264689922332764
            ],
            "min" : [
                -0.7344973087310791,
                0.38744059205055237,
                0.15264689922332764
            ],
            "type" : "VEC3"
        },
        {
            "bufferView" : 13,
            "componentType" : 5126,
            "count" : 4,
            "type" : "VEC3"
        },
        {
            "bufferView" : 14,
            "componentType" : 5126,
            "count" : 4,
            "type" : "VEC2"
        },
        {
            "bufferView" : 15,
            "componentType" : 5123,
            "count" : 6,
            "type" : "SCALAR"
        }
    ],
    "bufferViews" : [
        {
            "buffer" : 0,
            "byteLength" : 6576,
            "byteOffset" : 0
        },
        {
            "buffer" : 0,
            "byteLength" : 6576,
            "byteOffset" : 6576
        },
        {
            "buffer" : 0,
            "byteLength" : 4384,
            "byteOffset" : 13152
        },
        {
            "buffer" : 0,
            "byteLength" : 1644,
            "byteOffset" : 17536
        },
        {
            "buffer" : 0,
            "byteLength" : 2160,
            "byteOffset" : 19180
        },
        {
            "buffer" : 0,
            "byteLength" : 2160,
            "byteOffset" : 21340
        },
        {
            "buffer" : 0,
            "byteLength" : 1440,
            "byteOffset" : 23500
        },
        {
            "buffer" : 0,
            "byteLength" : 540,
            "byteOffset" : 24940
        },
        {
            "buffer" : 0,
            "byteLength" : 6996,
            "byteOffset" : 25480
        },
        {
            "buffer" : 0,
            "byteLength" : 6996,
            "byteOffset" : 32476
        },
        {
            "buffer" : 0,
            "byteLength" : 4664,
            "byteOffset" : 39472
        },
        {
            "buffer" : 0,
            "byteLength" : 4452,
            "byteOffset" : 44136
        },
        {
            "buffer" : 0,
            "byteLength" : 48,
            "byteOffset" : 48588
        },
        {
            "buffer" : 0,
            "byteLength" : 48,
            "byteOffset" : 48636
        },
        {
            "buffer" : 0,
            "byteLength" : 32,
            "byteOffset" : 48684
        },
        {
            "buffer" : 0,
            "byteLength" : 12,
            "byteOffset" : 48716
        }
    ],
    "buffers" : [
        {
            "byteLength" : 48728,
            "uri" : "data:application/octet-stream;base64,"
        }
    ]
}
