{
    "asset" : {
        "generator" : "Khronos glTF Blender I/O v1.3.48",
        "version" : "2.0"
    },
    "scene" : 0,
    "scenes" : [
        {
            "name" : "Scene",
            "nodes" : [
                0,
                1,
                2,
                3,
                4
            ]
        }
    ],
    "nodes" : [
        {
            "mesh" : 0,
            "name" : "Cube"
        },
        {
            "name" : "Light",
            "rotation" : [
                0.16907575726509094,
                0.7558803558349609,
                -0.27217137813568115,
                0.570947527885437
            ],
            "translation" : [
                0.532231330871582,
                2.855849266052246,
                2.1350674629211426
            ]
        },
        {
            "name" : "Camera",
            "rotation" : [
                0.483536034822464,
                0.33687159419059753,
                -0.20870360732078552,
                0.7804827094078064
            ],
            "translation" : [
                7.358891487121582,
                4.958309173583984,
                6.925790786743164
            ]
        },
        {
            "mesh" : 1,
            "name" : "Cube.001",
            "translation" : [
                0,
                0.19250528514385223,
                0.013537677004933357
            ]
        },
        {
            "name" : "Empty",
            "rotation" : [
                0.7070887684822083,
                -0.005052316002547741,
                -0.0050523169338703156,
                0.7070887088775635
            ],
            "scale" : [
                0.4539458751678467,
                0.4539458751678467,
                0.4539458751678467
            ],
            "translation" : [
                0.012567662633955479,
                1.0832884311676025,
                -0.9679587483406067
            ]
        }
    ],
    "materials" : [
        {
            "doubleSided" : true,
            "emissiveFactor" : [
                0,
                0,
                0
            ],
            "name" : "skin",
            "pbrMetallicRoughness" : {
                "baseColorFactor" : [
                    0.7105550169944763,
                    0.44675159454345703,
                    0.18343284726142883,
                    1
                ],
                "metallicFactor" : 0,
                "roughnessFactor" : 0.4000000059604645
            }
        },
        {
            "doubleSided" : true,
            "emissiveFactor" : [
                0,
                0,
                0
            ],
            "name" : "tunic",
            "pbrMetallicRoughness" : {
                "baseColorFactor" : [
                    0.8000000715255737,
                    0.011967352591454983,
                    0,
                    1
                ],
                "metallicFactor" : 0,
                "roughnessFactor" : 0.5
            }
        },
        {
            "doubleSided" : true,
            "emissiveFactor" : [
                0,
                0,
                0
            ],
            "name" : "pants",
            "pbrMetallicRoughness" : {
                "baseColorFactor" : [
                    0.03741008788347244,
                    0.012006092816591263,
                    0.0021376146469265223,
                    1
                ],
                "metallicFactor" : 0,
                "roughnessFactor" : 0.5
            }
        },
        {
            "doubleSided" : true,
            "emissiveFactor" : [
                0,
                0,
                0
            ],
            "name" : "shoe",
            "pbrMetallicRoughness" : {
                "baseColorFactor" : [
                    0,
                    0,
                    0,
                    1
                ],
                "metallicFactor" : 0,
                "roughnessFactor" : 0.5
            }
        },
        {
            "doubleSided" : true,
            "emissiveFactor" : [
                0,
                0,
                0
            ],
            "name" : "hat",
            "pbrMetallicRoughness" : {
                "baseColorFactor" : [
                    0.009018263779580593,
                    0.009018263779580593,
                    0.009018263779580593,
                    1
                ],
                "metallicFactor" : 0,
                "roughnessFactor" : 0.5
            }
        }
    ],
    "meshes" : [
        {
            "name" : "Cube",
            "primitives" : [
                {
                    "attributes" : {
                        "POSITION" : 0,
                        "NORMAL" : 1,
                        "TEXCOORD_0" : 2
                    },
                    "indices" : 3,
                    "material" : 0
                },
                {
                    "attributes" : {
                        "POSITION" : 4,
                        "NORMAL" : 5,
                        "TEXCOORD_0" : 6
                    },
                    "indices" : 7,
                    "material" : 1
                },
                {
                    "attributes" : {
                        "POSITION" : 8,
                        "NORMAL" : 9,
                        "TEXCOORD_0" : 10
                    },
                    "indices" : 11,
                    "material" : 2
                },
                {
                    "attributes" : {
                        "POSITION" : 12,
                        "NORMAL" : 13,
                        "TEXCOORD_0" : 14
                    },
                    "indices" : 15,
                    "material" : 3
                }
            ]
        },
        {
            "name" : "Cube.001",
            "primitives" : [
                {
                    "attributes" : {
                        "POSITION" : 16,
                        "NORMAL" : 17,
                        "TEXCOORD_0" : 18
                    },
                    "indices" : 19,
                    "material" : 4
                }
            ]
        }
    ],
    "accessors" : [
        {
            "bufferView" : 0,
            "componentType" : 5126,
            "count" : 112,
            "max" : [
                0.09383060038089752,
                1.9987208843231201,
                0.12416132539510727
            ],
            "min" : [
                -0.09383060038089752,
                1.6678082942962646,
                -0.14315755665302277
            ],
            "type" : "VEC3"
        },
        {
            "bufferView" : 1,
            "componentType" : 5126,
            "count" : 112,
            "type" : "VEC3"
        },
        {
            "bufferView" : 2,
            "componentType" : 5126,
            "count" : 112,
            "type" : "VEC2"
        },
        {
            "bufferView" : 3,
            "componentType" : 5123,
            "count" : 168,
            "type" : "SCALAR"
        },
        {
            "bufferView" : 4,
            "componentType" : 5126,
            "count" : 432,
            "max" : [
                0.4893978238105774,
                1.6936506032943726,
                0.12723839282989502
            ],
            "min" : [
                -0.4893978238105774,
                0.9508295059204102,
                -0.13639532029628754
            ],
            "type" : "VEC3"
        },
        {
            "bufferView" : 5,
            "componentType" : 5126,
            "count" : 432,
            "type" : "VEC3"
        },
        {
            "bufferView" : 6,
            "componentType" : 5126,
            "count" : 432,
            "type" : "VEC2"
        },
        {
            "bufferView" : 7,
            "componentType" : 5123,
            "count" : 648,
            "type" : "SCALAR"
        },
        {
            "bufferView" : 8,
            "componentType" : 5126,
            "count" : 192,
            "max" : [
                0.19886383414268494,
                0.9542297720909119,
                0.10402695089578629
            ],
            "min" : [
                -0.19886383414268494,
                0.18302306532859802,
                -0.13583365082740784
            ],
            "type" : "VEC3"
        },
        {
            "bufferView" : 9,
            "componentType" : 5126,
            "count" : 192,
            "type" : "VEC3"
        },
        {
            "bufferView" : 10,
            "componentType" : 5126,
            "count" : 192,
            "type" : "VEC2"
        },
        {
            "bufferView" : 11,
            "componentType" : 5123,
            "count" : 288,
            "type" : "SCALAR"
        },
        {
            "bufferView" : 12,
            "componentType" : 5126,
            "count" : 200,
            "max" : [
                0.17792971432209015,
                0.1878189891576767,
                0.2593120336532593
            ],
            "min" : [
                -0.17792971432209015,
                0,
                -0.08031872659921646
            ],
            "type" : "VEC3"
        },
        {
            "bufferView" : 13,
            "componentType" : 5126,
            "count" : 200,
            "type" : "VEC3"
        },
        {
            "bufferView" : 14,
            "componentType" : 5126,
            "count" : 200,
            "type" : "VEC2"
        },
        {
            "bufferView" : 15,
            "componentType" : 5123,
            "count" : 312,
            "type" : "SCALAR"
        },
        {
            "bufferView" : 16,
            "componentType" : 5126,
            "count" : 414,
            "max" : [
                0.12454350292682648,
                2.0380098819732666,
                0.12479699403047562
            ],
            "min" : [
                -0.12454349547624588,
                1.6539838314056396,
                -0.16174684464931488
            ],
            "type" : "VEC3"
        },
        {
            "bufferView" : 17,
            "componentType" : 5126,
            "count" : 414,
            "type" : "VEC3"
        },
        {
            "bufferView" : 18,
            "componentType" : 5126,
            "count" : 414,
            "type" : "VEC2"
        },
        {
            "bufferView" : 19,
            "componentType" : 5123,
            "count" : 2304,
            "type" : "SCALAR"
        }
    ],
    "bufferViews" : [
        {
            "buffer" : 0,
            "byteLength" : 1344,
            "byteOffset" : 0
        },
        {
            "buffer" : 0,
            "byteLength" : 1344,
            "byteOffset" : 1344
        },
        {
            "buffer" : 0,
            "byteLength" : 896,
            "byteOffset" : 2688
        },
        {
            "buffer" : 0,
            "byteLength" : 336,
            "byteOffset" : 3584
        },
        {
            "buffer" : 0,
            "byteLength" : 5184,
            "byteOffset" : 3920
        },
        {
            "buffer" : 0,
            "byteLength" : 5184,
            "byteOffset" : 9104
        },
        {
            "buffer" : 0,
            "byteLength" : 3456,
            "byteOffset" : 14288
        },
        {
            "buffer" : 0,
            "byteLength" : 1296,
            "byteOffset" : 17744
        },
        {
            "buffer" : 0,
            "byteLength" : 2304,
            "byteOffset" : 19040
        },
        {
            "buffer" : 0,
            "byteLength" : 2304,
            "byteOffset" : 21344
        },
        {
            "buffer" : 0,
            "byteLength" : 1536,
            "byteOffset" : 23648
        },
        {
            "buffer" : 0,
            "byteLength" : 576,
            "byteOffset" : 25184
        },
        {
            "buffer" : 0,
            "byteLength" : 2400,
            "byteOffset" : 25760
        },
        {
            "buffer" : 0,
            "byteLength" : 2400,
            "byteOffset" : 28160
        },
        {
            "buffer" : 0,
            "byteLength" : 1600,
            "byteOffset" : 30560
        },
        {
            "buffer" : 0,
            "byteLength" : 624,
            "byteOffset" : 32160
        },
        {
            "buffer" : 0,
            "byteLength" : 4968,
            "byteOffset" : 32784
        },
        {
            "buffer" : 0,
            "byteLength" : 4968,
            "byteOffset" : 37752
        },
        {
            "buffer" : 0,
            "byteLength" : 3312,
            "byteOffset" : 42720
        },
        {
            "buffer" : 0,
            "byteLength" : 4608,
            "byteOffset" : 46032
        }
    ],
    "buffers" : [
        {
            "byteLength" : 50640,
            "uri" : "data:application/octet-stream;base64,"
        }
    ]
}
