{
    "asset" : {
        "generator" : "Khronos glTF Blender I/O v1.1.46",
        "version" : "2.0"
    },
    "scene" : 0,
    "scenes" : [
        {
            "name" : "Scene",
            "nodes" : [
                3,
                4,
                5
            ]
        }
    ],
    "nodes" : [
        {
            "mesh" : 0,
            "name" : "Cylinder",
            "rotation" : [
                0.5,
                0.5,
                -0.5000000596046448,
                0.4999999701976776
            ],
            "scale" : [
                5.000000476837158,
                5.000000476837158,
                5.000000476837158
            ],
            "translation" : [
                -0.11557337641716003,
                0.01455949991941452,
                -0.00042592192767187953
            ]
        },
        {
            "mesh" : 1,
            "name" : "Mag",
            "scale" : [
                0.22115127742290497,
                0.22115127742290497,
                0.22115127742290497
            ],
            "translation" : [
                0.16610342264175415,
                -0.14199811220169067,
                -9.943943587131798e-05
            ]
        },
        {
            "mesh" : 2,
            "name" : "Slide",
            "translation" : [
                0.17539557814598083,
                -0.11030124872922897,
                0
            ]
        },
        {
            "children" : [
                0,
                1,
                2
            ],
            "mesh" : 3,
            "name" : "Static",
            "translation" : [
                -0.17539557814598083,
                0.11030124872922897,
                0
            ]
        },
        {
            "name" : "Muzzle",
            "rotation" : [
                0,
                0,
                0.7071067094802856,
                0.7071068286895752
            ],
            "translation" : [
                -0.3294534683227539,
                0.1263817995786667,
                -8.516779053024948e-05
            ]
        },
        {
            "name" : "Ejector",
            "rotation" : [
                -0.5000001192092896,
                -0.5,
                0.49999991059303284,
                0.5
            ],
            "translation" : [
                -0.0373496487736702,
                0.1263817995786667,
                -0.00737097579985857
            ]
        }
    ],
    "animations" : [
        {
            "channels" : [
                {
                    "sampler" : 0,
                    "target" : {
                        "node" : 3,
                        "path" : "translation"
                    }
                },
                {
                    "sampler" : 1,
                    "target" : {
                        "node" : 3,
                        "path" : "rotation"
                    }
                }
            ],
            "name" : "StaticAction",
            "samplers" : [
                {
                    "input" : 17,
                    "interpolation" : "LINEAR",
                    "output" : 18
                },
                {
                    "input" : 17,
                    "interpolation" : "LINEAR",
                    "output" : 19
                }
            ]
        },
        {
            "channels" : [
                {
                    "sampler" : 0,
                    "target" : {
                        "node" : 2,
                        "path" : "translation"
                    }
                },
                {
                    "sampler" : 1,
                    "target" : {
                        "node" : 2,
                        "path" : "rotation"
                    }
                }
            ],
            "name" : "SlideAction",
            "samplers" : [
                {
                    "input" : 20,
                    "interpolation" : "LINEAR",
                    "output" : 21
                },
                {
                    "input" : 20,
                    "interpolation" : "LINEAR",
                    "output" : 22
                }
            ]
        }
    ],
    "meshes" : [
        {
            "name" : "Cylinder.001",
            "primitives" : [
                {
                    "attributes" : {
                        "POSITION" : 0,
                        "NORMAL" : 1,
                        "TEXCOORD_0" : 2
                    },
                    "indices" : 3
                }
            ]
        },
        {
            "name" : "Cube.004",
            "primitives" : [
                {
                    "attributes" : {
                        "POSITION" : 4,
                        "NORMAL" : 5,
                        "TANGENT" : 6,
                        "TEXCOORD_0" : 7
                    },
                    "indices" : 8
                }
            ]
        },
        {
            "name" : "Cube.003",
            "primitives" : [
                {
                    "attributes" : {
                        "POSITION" : 9,
                        "NORMAL" : 10,
                        "TEXCOORD_0" : 11
                    },
                    "indices" : 12
                }
            ]
        },
        {
            "name" : "Cube.001",
            "primitives" : [
                {
                    "attributes" : {
                        "POSITION" : 13,
                        "NORMAL" : 14,
                        "TEXCOORD_0" : 15
                    },
                    "indices" : 16
                }
            ]
        }
    ],
    "accessors" : [
        {
            "bufferView" : 0,
            "componentType" : 5126,
            "count" : 538,
            "max" : [
                0.003427208634093404,
                0.007593258284032345,
                0.0034272081684321165
            ],
            "min" : [
                -0.0034272088669240475,
                -0.0075932578183710575,
                -0.0034272081684321165
            ],
            "type" : "VEC3"
        },
        {
            "bufferView" : 1,
            "componentType" : 5126,
            "count" : 538,
            "type" : "VEC3"
        },
        {
            "bufferView" : 2,
            "componentType" : 5126,
            "count" : 538,
            "type" : "VEC2"
        },
        {
            "bufferView" : 3,
            "componentType" : 5123,
            "count" : 2292,
            "type" : "SCALAR"
        },
        {
            "bufferView" : 4,
            "componentType" : 5126,
            "count" : 433,
            "max" : [
                0.2913166880607605,
                0.5705512762069702,
                0.08776769787073135
            ],
            "min" : [
                -0.2987387776374817,
                -0.21282494068145752,
                -0.08698607981204987
            ],
            "type" : "VEC3"
        },
        {
            "bufferView" : 5,
            "componentType" : 5126,
            "count" : 433,
            "type" : "VEC3"
        },
        {
            "bufferView" : 6,
            "componentType" : 5126,
            "count" : 433,
            "type" : "VEC4"
        },
        {
            "bufferView" : 7,
            "componentType" : 5126,
            "count" : 433,
            "type" : "VEC2"
        },
        {
            "bufferView" : 8,
            "componentType" : 5123,
            "count" : 1656,
            "type" : "SCALAR"
        },
        {
            "bufferView" : 9,
            "componentType" : 5126,
            "count" : 219,
            "max" : [
                0.04575569927692413,
                0.15192578732967377,
                0.02800614945590496
            ],
            "min" : [
                -0.3233070969581604,
                0.09423625469207764,
                -0.028006119653582573
            ],
            "type" : "VEC3"
        },
        {
            "bufferView" : 10,
            "componentType" : 5126,
            "count" : 219,
            "type" : "VEC3"
        },
        {
            "bufferView" : 11,
            "componentType" : 5126,
            "count" : 219,
            "type" : "VEC2"
        },
        {
            "bufferView" : 12,
            "componentType" : 5123,
            "count" : 834,
            "type" : "SCALAR"
        },
        {
            "bufferView" : 13,
            "componentType" : 5126,
            "count" : 1617,
            "max" : [
                0.24539166688919067,
                0.03563125059008598,
                0.028006132692098618
            ],
            "min" : [
                -0.14791151881217957,
                -0.18439528346061707,
                -0.028006132692098618
            ],
            "type" : "VEC3"
        },
        {
            "bufferView" : 14,
            "componentType" : 5126,
            "count" : 1617,
            "type" : "VEC3"
        },
        {
            "bufferView" : 15,
            "componentType" : 5126,
            "count" : 1617,
            "type" : "VEC2"
        },
        {
            "bufferView" : 16,
            "componentType" : 5123,
            "count" : 7500,
            "type" : "SCALAR"
        },
        {
            "bufferView" : 17,
            "componentType" : 5126,
            "count" : 16,
            "max" : [
                0.26666666666666666
            ],
            "min" : [
                0.016666666666666666
            ],
            "type" : "SCALAR"
        },
        {
            "bufferView" : 18,
            "componentType" : 5126,
            "count" : 16,
            "type" : "VEC3"
        },
        {
            "bufferView" : 19,
            "componentType" : 5126,
            "count" : 16,
            "type" : "VEC4"
        },
        {
            "bufferView" : 20,
            "componentType" : 5126,
            "count" : 11,
            "max" : [
                0.18333333333333332
            ],
            "min" : [
                0.016666666666666666
            ],
            "type" : "SCALAR"
        },
        {
            "bufferView" : 21,
            "componentType" : 5126,
            "count" : 11,
            "type" : "VEC3"
        },
        {
            "bufferView" : 22,
            "componentType" : 5126,
            "count" : 11,
            "type" : "VEC4"
        }
    ],
    "bufferViews" : [
        {
            "buffer" : 0,
            "byteLength" : 6456,
            "byteOffset" : 0
        },
        {
            "buffer" : 0,
            "byteLength" : 6456,
            "byteOffset" : 6456
        },
        {
            "buffer" : 0,
            "byteLength" : 4304,
            "byteOffset" : 12912
        },
        {
            "buffer" : 0,
            "byteLength" : 4584,
            "byteOffset" : 17216
        },
        {
            "buffer" : 0,
            "byteLength" : 5196,
            "byteOffset" : 21800
        },
        {
            "buffer" : 0,
            "byteLength" : 5196,
            "byteOffset" : 26996
        },
        {
            "buffer" : 0,
            "byteLength" : 6928,
            "byteOffset" : 32192
        },
        {
            "buffer" : 0,
            "byteLength" : 3464,
            "byteOffset" : 39120
        },
        {
            "buffer" : 0,
            "byteLength" : 3312,
            "byteOffset" : 42584
        },
        {
            "buffer" : 0,
            "byteLength" : 2628,
            "byteOffset" : 45896
        },
        {
            "buffer" : 0,
            "byteLength" : 2628,
            "byteOffset" : 48524
        },
        {
            "buffer" : 0,
            "byteLength" : 1752,
            "byteOffset" : 51152
        },
        {
            "buffer" : 0,
            "byteLength" : 1668,
            "byteOffset" : 52904
        },
        {
            "buffer" : 0,
            "byteLength" : 19404,
            "byteOffset" : 54572
        },
        {
            "buffer" : 0,
            "byteLength" : 19404,
            "byteOffset" : 73976
        },
        {
            "buffer" : 0,
            "byteLength" : 12936,
            "byteOffset" : 93380
        },
        {
            "buffer" : 0,
            "byteLength" : 15000,
            "byteOffset" : 106316
        },
        {
            "buffer" : 0,
            "byteLength" : 64,
            "byteOffset" : 121316
        },
        {
            "buffer" : 0,
            "byteLength" : 192,
            "byteOffset" : 121380
        },
        {
            "buffer" : 0,
            "byteLength" : 256,
            "byteOffset" : 121572
        },
        {
            "buffer" : 0,
            "byteLength" : 44,
            "byteOffset" : 121828
        },
        {
            "buffer" : 0,
            "byteLength" : 132,
            "byteOffset" : 121872
        },
        {
            "buffer" : 0,
            "byteLength" : 176,
            "byteOffset" : 122004
        }
    ],
    "buffers" : [
        {
            "byteLength" : 122180,
            "uri" : "data:application/octet-stream;base64,"
        }
    ]
}
