{
    "asset" : {
        "generator" : "Khronos glTF Blender I/O v1.3.48",
        "version" : "2.0"
    },
    "scene" : 0,
    "scenes" : [
        {
            "name" : "Scene",
            "nodes" : [
                0,
                1,
                6
            ]
        }
    ],
    "nodes" : [
        {
            "name" : "Muzzle",
            "rotation" : [
                0,
                0,
                0.7071067094802856,
                0.7071068286895752
            ],
            "translation" : [
                -0.3294534683227539,
                0.1263817995786667,
                -8.516779053024948e-05
            ]
        },
        {
            "name" : "Ejector",
            "rotation" : [
                -0.5000001192092896,
                -0.5,
                0.49999991059303284,
                0.5
            ],
            "translation" : [
                -0.0373496487736702,
                0.1263817995786667,
                -0.00737097579985857
            ]
        },
        {
            "name" : "Slide",
            "rotation" : [
                -2.052570113875163e-09,
                7.978012747775123e-16,
                2.74159445205375e-16,
                1
            ],
            "scale" : [
                1,
                0.9999999403953552,
                1
            ],
            "translation" : [
                0.06082473695278168,
                0.012356972321867943,
                2.0986838933367835e-08
            ]
        },
        {
            "name" : "Clip",
            "rotation" : [
                1.5676552322929638e-07,
                -5.635431321593387e-08,
                -0.5899704694747925,
                0.8074248433113098
            ],
            "translation" : [
                -0.07358796149492264,
                -0.10540667176246643,
                8.516167144989595e-05
            ]
        },
        {
            "children" : [
                2,
                3
            ],
            "name" : "Root",
            "rotation" : [
                -9.663506261858856e-08,
                4.104371953417285e-08,
                0.7071068286895752,
                0.7071068286895752
            ],
            "translation" : [
                -0.15756955742835999,
                0.0674501359462738,
                9.06252228816129e-09
            ]
        },
        {
            "mesh" : 0,
            "name" : "Static",
            "skin" : 0
        },
        {
            "children" : [
                5,
                4
            ],
            "name" : "Handgun_Armature",
            "translation" : [
                0.044230252504348755,
                0.008324703201651573,
                -8.51836521178484e-05
            ]
        }
    ],
    "animations" : [
        {
            "channels" : [
                {
                    "sampler" : 0,
                    "target" : {
                        "node" : 4,
                        "path" : "translation"
                    }
                },
                {
                    "sampler" : 1,
                    "target" : {
                        "node" : 4,
                        "path" : "rotation"
                    }
                },
                {
                    "sampler" : 2,
                    "target" : {
                        "node" : 4,
                        "path" : "scale"
                    }
                },
                {
                    "sampler" : 3,
                    "target" : {
                        "node" : 2,
                        "path" : "translation"
                    }
                },
                {
                    "sampler" : 4,
                    "target" : {
                        "node" : 2,
                        "path" : "rotation"
                    }
                },
                {
                    "sampler" : 5,
                    "target" : {
                        "node" : 2,
                        "path" : "scale"
                    }
                },
                {
                    "sampler" : 6,
                    "target" : {
                        "node" : 3,
                        "path" : "translation"
                    }
                },
                {
                    "sampler" : 7,
                    "target" : {
                        "node" : 3,
                        "path" : "rotation"
                    }
                },
                {
                    "sampler" : 8,
                    "target" : {
                        "node" : 3,
                        "path" : "scale"
                    }
                }
            ],
            "name" : "Shoot",
            "samplers" : [
                {
                    "input" : 15,
                    "interpolation" : "LINEAR",
                    "output" : 16
                },
                {
                    "input" : 15,
                    "interpolation" : "LINEAR",
                    "output" : 17
                },
                {
                    "input" : 15,
                    "interpolation" : "LINEAR",
                    "output" : 18
                },
                {
                    "input" : 15,
                    "interpolation" : "LINEAR",
                    "output" : 19
                },
                {
                    "input" : 15,
                    "interpolation" : "LINEAR",
                    "output" : 20
                },
                {
                    "input" : 15,
                    "interpolation" : "LINEAR",
                    "output" : 21
                },
                {
                    "input" : 15,
                    "interpolation" : "LINEAR",
                    "output" : 22
                },
                {
                    "input" : 15,
                    "interpolation" : "LINEAR",
                    "output" : 23
                },
                {
                    "input" : 15,
                    "interpolation" : "LINEAR",
                    "output" : 24
                }
            ]
        }
    ],
    "materials" : [
        {
            "doubleSided" : true,
            "emissiveFactor" : [
                0,
                0,
                0
            ],
            "name" : "HandgunPlastic",
            "pbrMetallicRoughness" : {
                "baseColorFactor" : [
                    0.03184327855706215,
                    0.03184327855706215,
                    0.03184327855706215,
                    1
                ],
                "metallicFactor" : 0,
                "roughnessFactor" : 0.5
            }
        },
        {
            "doubleSided" : true,
            "emissiveFactor" : [
                0,
                0,
                0
            ],
            "name" : "HandgunMetal",
            "pbrMetallicRoughness" : {
                "baseColorFactor" : [
                    0.800000011920929,
                    0.800000011920929,
                    0.800000011920929,
                    1
                ],
                "metallicFactor" : 1,
                "roughnessFactor" : 0.23758864402770996
            }
        }
    ],
    "meshes" : [
        {
            "name" : "Cube.001",
            "primitives" : [
                {
                    "attributes" : {
                        "POSITION" : 0,
                        "NORMAL" : 1,
                        "TEXCOORD_0" : 2,
                        "COLOR_0" : 3,
                        "JOINTS_0" : 4,
                        "WEIGHTS_0" : 5
                    },
                    "indices" : 6,
                    "material" : 0
                },
                {
                    "attributes" : {
                        "POSITION" : 7,
                        "NORMAL" : 8,
                        "TEXCOORD_0" : 9,
                        "COLOR_0" : 10,
                        "JOINTS_0" : 11,
                        "WEIGHTS_0" : 12
                    },
                    "indices" : 13,
                    "material" : 1
                }
            ]
        }
    ],
    "skins" : [
        {
            "inverseBindMatrices" : 14,
            "joints" : [
                4,
                2,
                3
            ],
            "name" : "Handgun_Armature"
        }
    ],
    "accessors" : [
        {
            "bufferView" : 0,
            "componentType" : 5126,
            "count" : 4425,
            "max" : [
                0.0681084543466568,
                0.15192492306232452,
                0.02800614945590496
            ],
            "min" : [
                -0.32504791021347046,
                -0.07876336574554443,
                -0.02808695286512375
            ],
            "type" : "VEC3"
        },
        {
            "bufferView" : 1,
            "componentType" : 5126,
            "count" : 4425,
            "type" : "VEC3"
        },
        {
            "bufferView" : 2,
            "componentType" : 5126,
            "count" : 4425,
            "type" : "VEC2"
        },
        {
            "bufferView" : 3,
            "componentType" : 5126,
            "count" : 4425,
            "type" : "VEC4"
        },
        {
            "bufferView" : 4,
            "componentType" : 5123,
            "count" : 4425,
            "type" : "VEC4"
        },
        {
            "bufferView" : 5,
            "componentType" : 5126,
            "count" : 4425,
            "type" : "VEC4"
        },
        {
            "bufferView" : 6,
            "componentType" : 5123,
            "count" : 14220,
            "type" : "SCALAR"
        },
        {
            "bufferView" : 7,
            "componentType" : 5126,
            "count" : 684,
            "max" : [
                -0.08816325664520264,
                0.14593249559402466,
                0.016899656504392624
            ],
            "min" : [
                -0.32893526554107666,
                0.10753518342971802,
                -0.02519656904041767
            ],
            "type" : "VEC3"
        },
        {
            "bufferView" : 8,
            "componentType" : 5126,
            "count" : 684,
            "type" : "VEC3"
        },
        {
            "bufferView" : 9,
            "componentType" : 5126,
            "count" : 684,
            "type" : "VEC2"
        },
        {
            "bufferView" : 10,
            "componentType" : 5126,
            "count" : 684,
            "type" : "VEC4"
        },
        {
            "bufferView" : 11,
            "componentType" : 5123,
            "count" : 684,
            "type" : "VEC4"
        },
        {
            "bufferView" : 12,
            "componentType" : 5126,
            "count" : 684,
            "type" : "VEC4"
        },
        {
            "bufferView" : 13,
            "componentType" : 5123,
            "count" : 1818,
            "type" : "SCALAR"
        },
        {
            "bufferView" : 14,
            "componentType" : 5126,
            "count" : 3,
            "type" : "MAT4"
        },
        {
            "bufferView" : 15,
            "componentType" : 5126,
            "count" : 26,
            "max" : [
                0.4166666666666667
            ],
            "min" : [
                0
            ],
            "type" : "SCALAR"
        },
        {
            "bufferView" : 16,
            "componentType" : 5126,
            "count" : 26,
            "type" : "VEC3"
        },
        {
            "bufferView" : 17,
            "componentType" : 5126,
            "count" : 26,
            "type" : "VEC4"
        },
        {
            "bufferView" : 18,
            "componentType" : 5126,
            "count" : 26,
            "type" : "VEC3"
        },
        {
            "bufferView" : 19,
            "componentType" : 5126,
            "count" : 26,
            "type" : "VEC3"
        },
        {
            "bufferView" : 20,
            "componentType" : 5126,
            "count" : 26,
            "type" : "VEC4"
        },
        {
            "bufferView" : 21,
            "componentType" : 5126,
            "count" : 26,
            "type" : "VEC3"
        },
        {
            "bufferView" : 22,
            "componentType" : 5126,
            "count" : 26,
            "type" : "VEC3"
        },
        {
            "bufferView" : 23,
            "componentType" : 5126,
            "count" : 26,
            "type" : "VEC4"
        },
        {
            "bufferView" : 24,
            "componentType" : 5126,
            "count" : 26,
            "type" : "VEC3"
        }
    ],
    "bufferViews" : [
        {
            "buffer" : 0,
            "byteLength" : 53100,
            "byteOffset" : 0
        },
        {
            "buffer" : 0,
            "byteLength" : 53100,
            "byteOffset" : 53100
        },
        {
            "buffer" : 0,
            "byteLength" : 35400,
            "byteOffset" : 106200
        },
        {
            "buffer" : 0,
            "byteLength" : 70800,
            "byteOffset" : 141600
        },
        {
            "buffer" : 0,
            "byteLength" : 35400,
            "byteOffset" : 212400
        },
        {
            "buffer" : 0,
            "byteLength" : 70800,
            "byteOffset" : 247800
        },
        {
            "buffer" : 0,
            "byteLength" : 28440,
            "byteOffset" : 318600
        },
        {
            "buffer" : 0,
            "byteLength" : 8208,
            "byteOffset" : 347040
        },
        {
            "buffer" : 0,
            "byteLength" : 8208,
            "byteOffset" : 355248
        },
        {
            "buffer" : 0,
            "byteLength" : 5472,
            "byteOffset" : 363456
        },
        {
            "buffer" : 0,
            "byteLength" : 10944,
            "byteOffset" : 368928
        },
        {
            "buffer" : 0,
            "byteLength" : 5472,
            "byteOffset" : 379872
        },
        {
            "buffer" : 0,
            "byteLength" : 10944,
            "byteOffset" : 385344
        },
        {
            "buffer" : 0,
            "byteLength" : 3636,
            "byteOffset" : 396288
        },
        {
            "buffer" : 0,
            "byteLength" : 192,
            "byteOffset" : 399924
        },
        {
            "buffer" : 0,
            "byteLength" : 104,
            "byteOffset" : 400116
        },
        {
            "buffer" : 0,
            "byteLength" : 312,
            "byteOffset" : 400220
        },
        {
            "buffer" : 0,
            "byteLength" : 416,
            "byteOffset" : 400532
        },
        {
            "buffer" : 0,
            "byteLength" : 312,
            "byteOffset" : 400948
        },
        {
            "buffer" : 0,
            "byteLength" : 312,
            "byteOffset" : 401260
        },
        {
            "buffer" : 0,
            "byteLength" : 416,
            "byteOffset" : 401572
        },
        {
            "buffer" : 0,
            "byteLength" : 312,
            "byteOffset" : 401988
        },
        {
            "buffer" : 0,
            "byteLength" : 312,
            "byteOffset" : 402300
        },
        {
            "buffer" : 0,
            "byteLength" : 416,
            "byteOffset" : 402612
        },
        {
            "buffer" : 0,
            "byteLength" : 312,
            "byteOffset" : 403028
        }
    ],
    "buffers" : [
        {
            "byteLength" : 403340,
            "uri" : "data:application/octet-stream;base64,"
        }
    ]
}
