{
    "asset" : {
        "generator" : "Khronos glTF Blender I/O v1.3.48",
        "version" : "2.0"
    },
    "scene" : 0,
    "scenes" : [
        {
            "name" : "Scene",
            "nodes" : [
                0,
                1,
                6,
                7
            ]
        }
    ],
    "nodes" : [
        {
            "name" : "Muzzle",
            "rotation" : [
                0,
                0,
                0.7071067094802856,
                0.7071068286895752
            ],
            "translation" : [
                -0.3294534683227539,
                0.1263817995786667,
                -8.516779053024948e-05
            ]
        },
        {
            "name" : "Ejector",
            "rotation" : [
                -0.5000001192092896,
                -0.5,
                0.49999991059303284,
                0.5
            ],
            "translation" : [
                -0.0373496487736702,
                0.1263817995786667,
                -0.00737097579985857
            ]
        },
        {
            "name" : "Slide",
            "rotation" : [
                -2.052570113875163e-09,
                7.978012747775123e-16,
                2.74159445205375e-16,
                1
            ],
            "scale" : [
                1,
                0.9999999403953552,
                1
            ],
            "translation" : [
                0.06082473695278168,
                0.012356972321867943,
                2.0986838933367835e-08
            ]
        },
        {
            "name" : "Clip",
            "rotation" : [
                1.5676552322929638e-07,
                -5.635431321593387e-08,
                -0.5899704694747925,
                0.8074248433113098
            ],
            "translation" : [
                -0.07358796149492264,
                -0.10540667176246643,
                8.516167144989595e-05
            ]
        },
        {
            "children" : [
                2,
                3
            ],
            "name" : "Root",
            "rotation" : [
                -9.663506261858856e-08,
                4.104371953417285e-08,
                0.7071068286895752,
                0.7071068286895752
            ],
            "translation" : [
                -0.15756955742835999,
                0.0674501359462738,
                9.06252228816129e-09
            ]
        },
        {
            "mesh" : 0,
            "name" : "Static",
            "skin" : 0
        },
        {
            "children" : [
                5,
                4
            ],
            "name" : "Handgun_Armature",
            "translation" : [
                0.044230252504348755,
                0.008324703201651573,
                -8.51836521178484e-05
            ]
        },
        {
            "mesh" : 1,
            "name" : "Shell",
            "translation" : [
                -0.12524166703224182,
                0.1318463385105133,
                -0.009895686991512775
            ]
        }
    ],
    "animations" : [
        {
            "channels" : [
                {
                    "sampler" : 0,
                    "target" : {
                        "node" : 4,
                        "path" : "translation"
                    }
                },
                {
                    "sampler" : 1,
                    "target" : {
                        "node" : 4,
                        "path" : "rotation"
                    }
                },
                {
                    "sampler" : 2,
                    "target" : {
                        "node" : 4,
                        "path" : "scale"
                    }
                },
                {
                    "sampler" : 3,
                    "target" : {
                        "node" : 2,
                        "path" : "translation"
                    }
                },
                {
                    "sampler" : 4,
                    "target" : {
                        "node" : 2,
                        "path" : "rotation"
                    }
                },
                {
                    "sampler" : 5,
                    "target" : {
                        "node" : 2,
                        "path" : "scale"
                    }
                },
                {
                    "sampler" : 6,
                    "target" : {
                        "node" : 3,
                        "path" : "translation"
                    }
                },
                {
                    "sampler" : 7,
                    "target" : {
                        "node" : 3,
                        "path" : "rotation"
                    }
                },
                {
                    "sampler" : 8,
                    "target" : {
                        "node" : 3,
                        "path" : "scale"
                    }
                }
            ],
            "name" : "Shoot",
            "samplers" : [
                {
                    "input" : 11,
                    "interpolation" : "LINEAR",
                    "output" : 12
                },
                {
                    "input" : 11,
                    "interpolation" : "LINEAR",
                    "output" : 13
                },
                {
                    "input" : 11,
                    "interpolation" : "LINEAR",
                    "output" : 14
                },
                {
                    "input" : 11,
                    "interpolation" : "LINEAR",
                    "output" : 15
                },
                {
                    "input" : 11,
                    "interpolation" : "LINEAR",
                    "output" : 16
                },
                {
                    "input" : 11,
                    "interpolation" : "LINEAR",
                    "output" : 17
                },
                {
                    "input" : 11,
                    "interpolation" : "LINEAR",
                    "output" : 18
                },
                {
                    "input" : 11,
                    "interpolation" : "LINEAR",
                    "output" : 19
                },
                {
                    "input" : 11,
                    "interpolation" : "LINEAR",
                    "output" : 20
                }
            ]
        }
    ],
    "meshes" : [
        {
            "name" : "Cube.001",
            "primitives" : [
                {
                    "attributes" : {
                        "POSITION" : 0,
                        "NORMAL" : 1,
                        "TEXCOORD_0" : 2,
                        "JOINTS_0" : 3,
                        "WEIGHTS_0" : 4
                    },
                    "indices" : 5
                }
            ]
        },
        {
            "name" : "Cylinder",
            "primitives" : [
                {
                    "attributes" : {
                        "POSITION" : 7,
                        "NORMAL" : 8,
                        "TEXCOORD_0" : 9
                    },
                    "indices" : 10
                }
            ]
        }
    ],
    "skins" : [
        {
            "inverseBindMatrices" : 6,
            "joints" : [
                4,
                2,
                3
            ],
            "name" : "Handgun_Armature"
        }
    ],
    "accessors" : [
        {
            "bufferView" : 0,
            "componentType" : 5126,
            "count" : 5210,
            "max" : [
                0.07069024443626404,
                0.15192478895187378,
                0.02800615131855011
            ],
            "min" : [
                -0.32893526554107666,
                -0.07876337319612503,
                -0.028006121516227722
            ],
            "type" : "VEC3"
        },
        {
            "bufferView" : 1,
            "componentType" : 5126,
            "count" : 5210,
            "type" : "VEC3"
        },
        {
            "bufferView" : 2,
            "componentType" : 5126,
            "count" : 5210,
            "type" : "VEC2"
        },
        {
            "bufferView" : 3,
            "componentType" : 5123,
            "count" : 5210,
            "type" : "VEC4"
        },
        {
            "bufferView" : 4,
            "componentType" : 5126,
            "count" : 5210,
            "type" : "VEC4"
        },
        {
            "bufferView" : 5,
            "componentType" : 5123,
            "count" : 18576,
            "type" : "SCALAR"
        },
        {
            "bufferView" : 6,
            "componentType" : 5126,
            "count" : 3,
            "type" : "MAT4"
        },
        {
            "bufferView" : 7,
            "componentType" : 5126,
            "count" : 780,
            "max" : [
                0.027581216767430305,
                0.011318045668303967,
                0.011317865923047066
            ],
            "min" : [
                -0.027581388130784035,
                -0.01131832879036665,
                -0.011318502947688103
            ],
            "type" : "VEC3"
        },
        {
            "bufferView" : 8,
            "componentType" : 5126,
            "count" : 780,
            "type" : "VEC3"
        },
        {
            "bufferView" : 9,
            "componentType" : 5126,
            "count" : 780,
            "type" : "VEC2"
        },
        {
            "bufferView" : 10,
            "componentType" : 5123,
            "count" : 2292,
            "type" : "SCALAR"
        },
        {
            "bufferView" : 11,
            "componentType" : 5126,
            "count" : 26,
            "max" : [
                0.4166666666666667
            ],
            "min" : [
                0
            ],
            "type" : "SCALAR"
        },
        {
            "bufferView" : 12,
            "componentType" : 5126,
            "count" : 26,
            "type" : "VEC3"
        },
        {
            "bufferView" : 13,
            "componentType" : 5126,
            "count" : 26,
            "type" : "VEC4"
        },
        {
            "bufferView" : 14,
            "componentType" : 5126,
            "count" : 26,
            "type" : "VEC3"
        },
        {
            "bufferView" : 15,
            "componentType" : 5126,
            "count" : 26,
            "type" : "VEC3"
        },
        {
            "bufferView" : 16,
            "componentType" : 5126,
            "count" : 26,
            "type" : "VEC4"
        },
        {
            "bufferView" : 17,
            "componentType" : 5126,
            "count" : 26,
            "type" : "VEC3"
        },
        {
            "bufferView" : 18,
            "componentType" : 5126,
            "count" : 26,
            "type" : "VEC3"
        },
        {
            "bufferView" : 19,
            "componentType" : 5126,
            "count" : 26,
            "type" : "VEC4"
        },
        {
            "bufferView" : 20,
            "componentType" : 5126,
            "count" : 26,
            "type" : "VEC3"
        }
    ],
    "bufferViews" : [
        {
            "buffer" : 0,
            "byteLength" : 62520,
            "byteOffset" : 0
        },
        {
            "buffer" : 0,
            "byteLength" : 62520,
            "byteOffset" : 62520
        },
        {
            "buffer" : 0,
            "byteLength" : 41680,
            "byteOffset" : 125040
        },
        {
            "buffer" : 0,
            "byteLength" : 41680,
            "byteOffset" : 166720
        },
        {
            "buffer" : 0,
            "byteLength" : 83360,
            "byteOffset" : 208400
        },
        {
            "buffer" : 0,
            "byteLength" : 37152,
            "byteOffset" : 291760
        },
        {
            "buffer" : 0,
            "byteLength" : 192,
            "byteOffset" : 328912
        },
        {
            "buffer" : 0,
            "byteLength" : 9360,
            "byteOffset" : 329104
        },
        {
            "buffer" : 0,
            "byteLength" : 9360,
            "byteOffset" : 338464
        },
        {
            "buffer" : 0,
            "byteLength" : 6240,
            "byteOffset" : 347824
        },
        {
            "buffer" : 0,
            "byteLength" : 4584,
            "byteOffset" : 354064
        },
        {
            "buffer" : 0,
            "byteLength" : 104,
            "byteOffset" : 358648
        },
        {
            "buffer" : 0,
            "byteLength" : 312,
            "byteOffset" : 358752
        },
        {
            "buffer" : 0,
            "byteLength" : 416,
            "byteOffset" : 359064
        },
        {
            "buffer" : 0,
            "byteLength" : 312,
            "byteOffset" : 359480
        },
        {
            "buffer" : 0,
            "byteLength" : 312,
            "byteOffset" : 359792
        },
        {
            "buffer" : 0,
            "byteLength" : 416,
            "byteOffset" : 360104
        },
        {
            "buffer" : 0,
            "byteLength" : 312,
            "byteOffset" : 360520
        },
        {
            "buffer" : 0,
            "byteLength" : 312,
            "byteOffset" : 360832
        },
        {
            "buffer" : 0,
            "byteLength" : 416,
            "byteOffset" : 361144
        },
        {
            "buffer" : 0,
            "byteLength" : 312,
            "byteOffset" : 361560
        }
    ],
    "buffers" : [
        {
            "byteLength" : 361872,
            "uri" : "data:application/octet-stream;base64,"
        }
    ]
}
