{
    "asset" : {
        "generator" : "Khronos glTF Blender I/O v1.1.46",
        "version" : "2.0"
    },
    "scene" : 0,
    "scenes" : [
        {
            "name" : "Scene",
            "nodes" : [
                3
            ]
        }
    ],
    "nodes" : [
        {
            "mesh" : 0,
            "name" : "Cylinder",
            "rotation" : [
                0.5,
                0.5,
                -0.5000000596046448,
                0.5
            ],
            "scale" : [
                11.693883895874023,
                32.51125717163086,
                14.836203575134277
            ],
            "translation" : [
                -0.5225987434387207,
                0.06583499908447266,
                -0.0019259302644059062
            ]
        },
        {
            "mesh" : 1,
            "name" : "Mag"
        },
        {
            "mesh" : 2,
            "name" : "Slide"
        },
        {
            "children" : [
                0,
                1,
                2
            ],
            "mesh" : 3,
            "name" : "Static",
            "scale" : [
                0.44230252504348755,
                0.44230252504348755,
                0.44230252504348755
            ],
            "translation" : [
                -0.32985466718673706,
                0.20647387206554413,
                0
            ]
        }
    ],
    "meshes" : [
        {
            "name" : "Cylinder.001",
            "primitives" : [
                {
                    "attributes" : {
                        "POSITION" : 0,
                        "NORMAL" : 1,
                        "TEXCOORD_0" : 2
                    },
                    "indices" : 3
                }
            ]
        },
        {
            "name" : "Cube.004",
            "primitives" : [
                {
                    "attributes" : {
                        "POSITION" : 4,
                        "NORMAL" : 5,
                        "TEXCOORD_0" : 6
                    },
                    "indices" : 7
                }
            ]
        },
        {
            "name" : "Cube.003",
            "primitives" : [
                {
                    "attributes" : {
                        "POSITION" : 8,
                        "NORMAL" : 9,
                        "TEXCOORD_0" : 10
                    },
                    "indices" : 11
                }
            ]
        },
        {
            "name" : "Cube.001",
            "primitives" : [
                {
                    "attributes" : {
                        "POSITION" : 12,
                        "NORMAL" : 13,
                        "TEXCOORD_0" : 14
                    },
                    "indices" : 15
                }
            ]
        }
    ],
    "accessors" : [
        {
            "bufferView" : 0,
            "componentType" : 5126,
            "count" : 76,
            "max" : [
                0.0066994489170610905,
                0.005280499812215567,
                0.005280499812215567
            ],
            "min" : [
                -0.0066994489170610905,
                -0.005280499812215567,
                -0.005280499812215567
            ],
            "type" : "VEC3"
        },
        {
            "bufferView" : 1,
            "componentType" : 5126,
            "count" : 76,
            "type" : "VEC3"
        },
        {
            "bufferView" : 2,
            "componentType" : 5126,
            "count" : 76,
            "type" : "VEC2"
        },
        {
            "bufferView" : 3,
            "componentType" : 5123,
            "count" : 276,
            "type" : "SCALAR"
        },
        {
            "bufferView" : 4,
            "componentType" : 5126,
            "count" : 124,
            "max" : [
                1.0424017906188965,
                -0.07153454422950745,
                0.087318055331707
            ],
            "min" : [
                0.44924306869506836,
                -0.8549107909202576,
                -0.08743572235107422
            ],
            "type" : "VEC3"
        },
        {
            "bufferView" : 5,
            "componentType" : 5126,
            "count" : 124,
            "type" : "VEC3"
        },
        {
            "bufferView" : 6,
            "componentType" : 5126,
            "count" : 124,
            "type" : "VEC2"
        },
        {
            "bufferView" : 7,
            "componentType" : 5123,
            "count" : 192,
            "type" : "SCALAR"
        },
        {
            "bufferView" : 8,
            "componentType" : 5126,
            "count" : 128,
            "max" : [
                1,
                0.18821287155151367,
                0.12663790583610535
            ],
            "min" : [
                -0.6688251495361328,
                -0.07264254242181778,
                -0.12663790583610535
            ],
            "type" : "VEC3"
        },
        {
            "bufferView" : 9,
            "componentType" : 5126,
            "count" : 128,
            "type" : "VEC3"
        },
        {
            "bufferView" : 10,
            "componentType" : 5126,
            "count" : 128,
            "type" : "VEC2"
        },
        {
            "bufferView" : 11,
            "componentType" : 5123,
            "count" : 249,
            "type" : "SCALAR"
        },
        {
            "bufferView" : 12,
            "componentType" : 5126,
            "count" : 132,
            "max" : [
                1.0683157444000244,
                0.16111710667610168,
                0.12663790583610535
            ],
            "min" : [
                -0.6688251495361328,
                -0.8337970972061157,
                -0.12663790583610535
            ],
            "type" : "VEC3"
        },
        {
            "bufferView" : 13,
            "componentType" : 5126,
            "count" : 132,
            "type" : "VEC3"
        },
        {
            "bufferView" : 14,
            "componentType" : 5126,
            "count" : 132,
            "type" : "VEC2"
        },
        {
            "bufferView" : 15,
            "componentType" : 5123,
            "count" : 456,
            "type" : "SCALAR"
        }
    ],
    "bufferViews" : [
        {
            "buffer" : 0,
            "byteLength" : 912,
            "byteOffset" : 0
        },
        {
            "buffer" : 0,
            "byteLength" : 912,
            "byteOffset" : 912
        },
        {
            "buffer" : 0,
            "byteLength" : 608,
            "byteOffset" : 1824
        },
        {
            "buffer" : 0,
            "byteLength" : 552,
            "byteOffset" : 2432
        },
        {
            "buffer" : 0,
            "byteLength" : 1488,
            "byteOffset" : 2984
        },
        {
            "buffer" : 0,
            "byteLength" : 1488,
            "byteOffset" : 4472
        },
        {
            "buffer" : 0,
            "byteLength" : 992,
            "byteOffset" : 5960
        },
        {
            "buffer" : 0,
            "byteLength" : 384,
            "byteOffset" : 6952
        },
        {
            "buffer" : 0,
            "byteLength" : 1536,
            "byteOffset" : 7336
        },
        {
            "buffer" : 0,
            "byteLength" : 1536,
            "byteOffset" : 8872
        },
        {
            "buffer" : 0,
            "byteLength" : 1024,
            "byteOffset" : 10408
        },
        {
            "buffer" : 0,
            "byteLength" : 498,
            "byteOffset" : 11432
        },
        {
            "buffer" : 0,
            "byteLength" : 1584,
            "byteOffset" : 11932
        },
        {
            "buffer" : 0,
            "byteLength" : 1584,
            "byteOffset" : 13516
        },
        {
            "buffer" : 0,
            "byteLength" : 1056,
            "byteOffset" : 15100
        },
        {
            "buffer" : 0,
            "byteLength" : 912,
            "byteOffset" : 16156
        }
    ],
    "buffers" : [
        {
            "byteLength" : 17068,
            "uri" : "data:application/octet-stream;base64,"
        }
    ]
}
