{
    "asset" : {
        "generator" : "Khronos glTF Blender I/O v1.7.7",
        "version" : "2.0"
    },
    "scene" : 0,
    "scenes" : [
        {
            "name" : "Scene",
            "nodes" : [
                0,
                1
            ]
        }
    ],
    "nodes" : [
        {
            "mesh" : 0,
            "name" : "Casing_LOD0"
        },
        {
            "mesh" : 1,
            "name" : "Casing_LOD1"
        }
    ],
    "materials" : [
        {
            "doubleSided" : true,
            "name" : "Casing",
            "pbrMetallicRoughness" : {
                "baseColorFactor" : [
                    0.8000000715255737,
                    0.45338723063468933,
                    0.07792434841394424,
                    1
                ],
                "roughnessFactor" : 0.3590908646583557
            }
        }
    ],
    "meshes" : [
        {
            "name" : "Cylinder",
            "primitives" : [
                {
                    "attributes" : {
                        "POSITION" : 0,
                        "NORMAL" : 1,
                        "TEXCOORD_0" : 2,
                        "COLOR_0" : 3
                    },
                    "indices" : 4,
                    "material" : 0
                }
            ]
        },
        {
            "name" : "Cylinder.001",
            "primitives" : [
                {
                    "attributes" : {
                        "POSITION" : 5,
                        "NORMAL" : 6,
                        "TEXCOORD_0" : 7,
                        "COLOR_0" : 8
                    },
                    "indices" : 9,
                    "material" : 0
                }
            ]
        }
    ],
    "accessors" : [
        {
            "bufferView" : 0,
            "componentType" : 5126,
            "count" : 780,
            "max" : [
                0.027581216767430305,
                0.011318045668303967,
                0.011317865923047066
            ],
            "min" : [
                -0.027581388130784035,
                -0.01131832879036665,
                -0.011318502947688103
            ],
            "type" : "VEC3"
        },
        {
            "bufferView" : 1,
            "componentType" : 5126,
            "count" : 780,
            "type" : "VEC3"
        },
        {
            "bufferView" : 2,
            "componentType" : 5126,
            "count" : 780,
            "type" : "VEC2"
        },
        {
            "bufferView" : 3,
            "componentType" : 5123,
            "count" : 780,
            "normalized" : true,
            "type" : "VEC4"
        },
        {
            "bufferView" : 4,
            "componentType" : 5123,
            "count" : 2292,
            "type" : "SCALAR"
        },
        {
            "bufferView" : 5,
            "componentType" : 5126,
            "count" : 235,
            "max" : [
                0.027581216767430305,
                0.011100572533905506,
                0.01110039185732603
            ],
            "min" : [
                -0.027581388130784035,
                -0.01131832879036665,
                -0.011101038195192814
            ],
            "type" : "VEC3"
        },
        {
            "bufferView" : 6,
            "componentType" : 5126,
            "count" : 235,
            "type" : "VEC3"
        },
        {
            "bufferView" : 7,
            "componentType" : 5126,
            "count" : 235,
            "type" : "VEC2"
        },
        {
            "bufferView" : 8,
            "componentType" : 5123,
            "count" : 235,
            "normalized" : true,
            "type" : "VEC4"
        },
        {
            "bufferView" : 9,
            "componentType" : 5123,
            "count" : 672,
            "type" : "SCALAR"
        }
    ],
    "bufferViews" : [
        {
            "buffer" : 0,
            "byteLength" : 9360,
            "byteOffset" : 0
        },
        {
            "buffer" : 0,
            "byteLength" : 9360,
            "byteOffset" : 9360
        },
        {
            "buffer" : 0,
            "byteLength" : 6240,
            "byteOffset" : 18720
        },
        {
            "buffer" : 0,
            "byteLength" : 6240,
            "byteOffset" : 24960
        },
        {
            "buffer" : 0,
            "byteLength" : 4584,
            "byteOffset" : 31200
        },
        {
            "buffer" : 0,
            "byteLength" : 2820,
            "byteOffset" : 35784
        },
        {
            "buffer" : 0,
            "byteLength" : 2820,
            "byteOffset" : 38604
        },
        {
            "buffer" : 0,
            "byteLength" : 1880,
            "byteOffset" : 41424
        },
        {
            "buffer" : 0,
            "byteLength" : 1880,
            "byteOffset" : 43304
        },
        {
            "buffer" : 0,
            "byteLength" : 1344,
            "byteOffset" : 45184
        }
    ],
    "buffers" : [
        {
            "byteLength" : 46528,
            "uri" : "data:application/octet-stream;base64,"
        }
    ]
}
