{
    "asset" : {
        "generator" : "Khronos glTF Blender I/O v1.3.48",
        "version" : "2.0"
    },
    "scene" : 0,
    "scenes" : [
        {
            "name" : "Scene",
            "nodes" : [
                0,
                1,
                2
            ]
        }
    ],
    "nodes" : [
        {
            "mesh" : 0,
            "name" : "Cube"
        },
        {
            "name" : "Light",
            "rotation" : [
                0.16907575726509094,
                0.7558803558349609,
                -0.27217137813568115,
                0.570947527885437
            ],
            "translation" : [
                4.076245307922363,
                5.903861999511719,
                -1.0054539442062378
            ]
        },
        {
            "name" : "Camera",
            "rotation" : [
                0.483536034822464,
                0.33687159419059753,
                -0.20870360732078552,
                0.7804827094078064
            ],
            "translation" : [
                7.358891487121582,
                4.958309173583984,
                6.925790786743164
            ]
        }
    ],
    "materials" : [
        {
            "doubleSided" : true,
            "emissiveFactor" : [
                0,
                0,
                0
            ],
            "name" : "Gold",
            "pbrMetallicRoughness" : {
                "baseColorFactor" : [
                    0.8000000715255737,
                    0.5359106659889221,
                    0.06486642360687256,
                    1
                ],
                "metallicFactor" : 0.9402984976768494,
                "roughnessFactor" : 0.2407960146665573
            }
        },
        {
            "doubleSided" : true,
            "emissiveFactor" : [
                0,
                0,
                0
            ],
            "name" : "Silk",
            "pbrMetallicRoughness" : {
                "baseColorFactor" : [
                    0.8000000715255737,
                    0.12772221863269806,
                    0.038792114704847336,
                    1
                ],
                "metallicFactor" : 0,
                "roughnessFactor" : 0.5
            }
        }
    ],
    "meshes" : [
        {
            "name" : "Cube",
            "primitives" : [
                {
                    "attributes" : {
                        "POSITION" : 0,
                        "NORMAL" : 1,
                        "TEXCOORD_0" : 2
                    },
                    "indices" : 3,
                    "material" : 0
                },
                {
                    "attributes" : {
                        "POSITION" : 4,
                        "NORMAL" : 5,
                        "TEXCOORD_0" : 6
                    },
                    "indices" : 7,
                    "material" : 1
                }
            ]
        }
    ],
    "accessors" : [
        {
            "bufferView" : 0,
            "componentType" : 5126,
            "count" : 1051,
            "max" : [
                1.0258569717407227,
                1.8433018922805786,
                0.5799752473831177
            ],
            "min" : [
                -1.0258569717407227,
                0,
                -0.6516551971435547
            ],
            "type" : "VEC3"
        },
        {
            "bufferView" : 1,
            "componentType" : 5126,
            "count" : 1051,
            "type" : "VEC3"
        },
        {
            "bufferView" : 2,
            "componentType" : 5126,
            "count" : 1051,
            "type" : "VEC2"
        },
        {
            "bufferView" : 3,
            "componentType" : 5123,
            "count" : 2160,
            "type" : "SCALAR"
        },
        {
            "bufferView" : 4,
            "componentType" : 5126,
            "count" : 18,
            "max" : [
                0.36685317754745483,
                1.7347807884216309,
                0.5370007753372192
            ],
            "min" : [
                -0.36685317754745483,
                0.1582583338022232,
                -0.21960511803627014
            ],
            "type" : "VEC3"
        },
        {
            "bufferView" : 5,
            "componentType" : 5126,
            "count" : 18,
            "type" : "VEC3"
        },
        {
            "bufferView" : 6,
            "componentType" : 5126,
            "count" : 18,
            "type" : "VEC2"
        },
        {
            "bufferView" : 7,
            "componentType" : 5123,
            "count" : 36,
            "type" : "SCALAR"
        }
    ],
    "bufferViews" : [
        {
            "buffer" : 0,
            "byteLength" : 12612,
            "byteOffset" : 0
        },
        {
            "buffer" : 0,
            "byteLength" : 12612,
            "byteOffset" : 12612
        },
        {
            "buffer" : 0,
            "byteLength" : 8408,
            "byteOffset" : 25224
        },
        {
            "buffer" : 0,
            "byteLength" : 4320,
            "byteOffset" : 33632
        },
        {
            "buffer" : 0,
            "byteLength" : 216,
            "byteOffset" : 37952
        },
        {
            "buffer" : 0,
            "byteLength" : 216,
            "byteOffset" : 38168
        },
        {
            "buffer" : 0,
            "byteLength" : 144,
            "byteOffset" : 38384
        },
        {
            "buffer" : 0,
            "byteLength" : 72,
            "byteOffset" : 38528
        }
    ],
    "buffers" : [
        {
            "byteLength" : 38600,
            "uri" : "data:application/octet-stream;base64,"
        }
    ]
}
